<?xml version="1.0" standalone="no"?>
<!DOCTYPE svg PUBLIC "-//W3C//DTD SVG 1.1//EN" "http://www.w3.org/Graphics/SVG/1.1/DTD/svg11.dtd" >
<svg xmlns="http://www.w3.org/2000/svg">
<metadata>Generated by IcoMoon</metadata>
<defs>
<font id="icomoon" horiz-adv-x="1024">
<font-face units-per-em="1024" ascent="960" descent="-64" />
<missing-glyph horiz-adv-x="1024" />
<glyph unicode="&#x20;" horiz-adv-x="512" d="" />
<glyph unicode="&#xe900;" glyph-name="dark-mode" d="M512 64q-160 0-272 112t-112 272 112 272 272 112q14.933 0 29.333-1.067t28.267-3.2q-43.733-30.933-69.867-80.533t-26.133-107.2q0-96 67.2-163.2t163.2-67.2q58.667 0 107.733 26.133t80 69.867q2.133-13.867 3.2-28.267t1.067-29.333q0-160-112-272t-272-112zM512 149.333q93.867 0 168.533 51.733t108.8 134.933q-21.333-5.333-42.667-8.533t-42.667-3.2q-131.2 0-223.467 92.267t-92.267 223.467q0 21.333 3.2 42.667t8.533 42.667q-83.2-34.133-134.933-108.8t-51.733-168.533q0-123.733 87.467-211.2t211.2-87.467z" />
<glyph unicode="&#xe901;" glyph-name="light-mode" d="M512 320q53.333 0 90.667 37.333t37.333 90.667-37.333 90.667-90.667 37.333-90.667-37.333-37.333-90.667 37.333-90.667 90.667-37.333zM512 234.667q-88.533 0-150.933 62.4t-62.4 150.933 62.4 150.933 150.933 62.4 150.933-62.4 62.4-150.933-62.4-150.933-150.933-62.4zM213.333 405.333h-170.667v85.333h170.667v-85.333zM981.333 405.333h-170.667v85.333h170.667v-85.333zM469.333 746.667v170.667h85.333v-170.667h-85.333zM469.333-21.333v170.667h85.333v-170.667h-85.333zM273.067 629.333l-107.733 103.467 60.8 62.933 102.4-106.667-55.467-59.733zM797.867 100.267l-103.467 107.733 56.533 58.667 107.733-103.467-60.8-62.933zM693.333 686.933l103.467 107.733 62.933-60.8-106.667-102.4-59.733 55.467zM164.267 162.133l107.733 103.467 58.667-56.533-103.467-107.733-62.933 60.8z" />
<glyph unicode="&#xe902;" glyph-name="new-release" d="M366.933 0l-81.067 136.533-153.6 34.133 14.933 157.867-104.533 119.467 104.533 119.467-14.933 157.867 153.6 34.133 81.067 136.533 145.067-61.867 145.067 61.867 81.067-136.533 153.6-34.133-14.933-157.867 104.533-119.467-104.533-119.467 14.933-157.867-153.6-34.133-81.067-136.533-145.067 61.867-145.067-61.867zM403.2 108.8l108.8 46.933 110.933-46.933 59.733 102.4 117.333 27.733-10.667 119.467 78.933 89.6-78.933 91.733 10.667 119.467-117.333 25.6-61.867 102.4-108.8-46.933-110.933 46.933-59.733-102.4-117.333-25.6 10.667-119.467-78.933-91.733 78.933-89.6-10.667-121.6 117.333-25.6 61.867-102.4zM467.2 296.533l241.067 241.067-59.733 61.867-181.333-181.333-91.733 89.6-59.733-59.733 151.467-151.467z" />
<glyph unicode="&#xe903;" glyph-name="group-add" d="M533.333 450.133q30.933 34.133 47.467 77.867t16.533 90.667-16.533 90.667-47.467 77.867q64-8.533 106.667-56.533t42.667-112-42.667-112-106.667-56.533zM768 106.667v128q0 38.4-17.067 73.067t-44.8 61.333q54.4-19.2 100.8-49.6t46.4-84.8v-128h-85.333zM853.333 405.333v85.333h-85.333v85.333h85.333v85.333h85.333v-85.333h85.333v-85.333h-85.333v-85.333h-85.333zM341.333 448q-70.4 0-120.533 50.133t-50.133 120.533 50.133 120.533 120.533 50.133 120.533-50.133 50.133-120.533-50.133-120.533-120.533-50.133zM0 106.667v119.467q0 36.267 18.667 66.667t49.6 46.4q66.133 33.067 134.4 49.6t138.667 16.533 138.667-16.533 134.4-49.6q30.933-16 49.6-46.4t18.667-66.667v-119.467h-682.667zM341.333 533.333q35.2 0 60.267 25.067t25.067 60.267-25.067 60.267-60.267 25.067-60.267-25.067-25.067-60.267 25.067-60.267 60.267-25.067zM85.333 192h512v34.133q0 11.733-5.867 21.333t-15.467 14.933q-57.6 28.8-116.267 43.2t-118.4 14.4-118.4-14.4-116.267-43.2q-9.6-5.333-15.467-14.933t-5.867-21.333v-34.133z" />
<glyph unicode="&#xe904;" glyph-name="group-remove" d="M533.333 450.133q30.933 34.133 47.467 77.867t16.533 90.667-16.533 90.667-47.467 77.867q64-8.533 106.667-56.533t42.667-112-42.667-112-106.667-56.533zM768 106.667v128q0 38.4-17.067 73.067t-44.8 61.333q54.4-19.2 100.8-49.6t46.4-84.8v-128h-85.333zM1024 490.667h-256v85.333h256v-85.333zM341.333 448q-70.4 0-120.533 50.133t-50.133 120.533 50.133 120.533 120.533 50.133 120.533-50.133 50.133-120.533-50.133-120.533-120.533-50.133zM0 106.667v119.467q0 36.267 18.667 66.667t49.6 46.4q66.133 33.067 134.4 49.6t138.667 16.533 138.667-16.533 134.4-49.6q30.933-16 49.6-46.4t18.667-66.667v-119.467h-682.667zM341.333 533.333q35.2 0 60.267 25.067t25.067 60.267-25.067 60.267-60.267 25.067-60.267-25.067-25.067-60.267 25.067-60.267 60.267-25.067zM85.333 192h512v34.133q0 11.733-5.867 21.333t-15.467 14.933q-57.6 28.8-116.267 43.2t-118.4 14.4-118.4-14.4-116.267-43.2q-9.6-5.333-15.467-14.933t-5.867-21.333v-34.133z" />
<glyph unicode="&#xe905;" glyph-name="mail" d="M170.667 106.667q-35.2 0-60.267 25.067t-25.067 60.267v512q0 35.2 25.067 60.267t60.267 25.067h682.667q35.2 0 60.267-25.067t25.067-60.267v-512q0-35.2-25.067-60.267t-60.267-25.067h-682.667zM512 405.333l-341.333 213.333v-426.667h682.667v426.667l-341.333-213.333zM512 490.667l341.333 213.333h-682.667l341.333-213.333zM170.667 618.667v0z" />
<glyph unicode="&#xe906;" glyph-name="instagram-gen-2" d="M327.68 898.56c-146.842 0-266.24-119.398-266.24-266.24v-368.64c0-146.842 119.398-266.24 266.24-266.24h368.64c146.842 0 266.24 119.398 266.24 266.24v368.64c0 146.842-119.398 266.24-266.24 266.24h-368.64zM757.76 734.72c22.528 0 40.96-18.432 40.96-40.96s-18.432-40.96-40.96-40.96c-22.528 0-40.96 18.432-40.96 40.96s18.432 40.96 40.96 40.96zM512 673.28c124.314 0 225.28-100.966 225.28-225.28s-100.966-225.28-225.28-225.28c-124.314 0-225.28 100.966-225.28 225.28s100.966 225.28 225.28 225.28zM512 632.32c-101.581 0-184.32-82.739-184.32-184.32s82.739-184.32 184.32-184.32c101.581 0 184.32 82.739 184.32 184.32s-82.739 184.32-184.32 184.32z" />
<glyph unicode="&#xe907;" glyph-name="public-gen-2" d="M464.512 872.021c-82.987-10.667-152.192-39.125-217.045-89.259-33.92-26.24-76.16-73.813-99.413-112.043-58.197-95.573-76.971-211.755-51.627-319.147 18.853-80.438 58.694-149.714 113.423-204.004l0.028-0.028c33.195-33.28 64.469-56.576 102.997-76.757 150.656-78.848 327.808-62.677 463.659 42.411 18.645 14.421 55.851 51.627 70.272 70.272 47.445 61.355 75.819 127.403 87.893 204.8 4.309 27.605 4.309 91.861 0 119.467-14.933 95.488-54.955 175.189-121.387 241.536-70.315 70.229-153.429 110.165-255.531 122.795-13.922 1.484-30.074 2.331-46.424 2.331-16.499 0-32.796-0.862-48.85-2.544l2.004 0.17zM524.416 760.747c20.224-39.296 34.688-75.051 47.232-116.608 3.797-12.587 6.912-23.509 6.912-24.192 0-0.725-29.952-1.28-66.56-1.28s-66.56 0.555-66.56 1.28c0 2.603 13.611 46.208 19.456 62.379 11.648 32.171 43.605 100.181 47.104 100.181 0.683 0 6.272-9.771 12.416-21.76zM399.189 748.203c-11.819-27.904-31.616-86.571-37.376-110.763-2.133-8.917-4.395-16.811-5.035-17.493-0.64-0.725-32.469-1.109-70.741-0.853l-69.589 0.427 10.069 15.36c39.895 59.669 96.282 105.536 162.637 131.539l2.355 0.813c9.472 3.584 17.408 6.272 17.664 6.059 0.256-0.256-4.224-11.563-9.984-25.088zM661.333 754.432c56.11-27.69 102.119-68.378 135.363-118.297l0.786-1.255 10.069-15.36-69.589-0.427c-38.272-0.256-70.101 0.128-70.741 0.853-1.898 4.851-3.634 10.708-4.902 16.738l-0.133 0.755c-5.845 24.619-25.643 83.243-37.333 110.549-2.263 4.619-5.784 12.907-9.111 21.293l-1.342 3.837c0 1.835 26.325-8.661 46.933-18.688zM342.229 529.493c-1.707-7.723-4.309-56.832-4.309-81.493s2.603-73.771 4.309-81.493l0.896-3.84h-161.92l-1.92 8.832c-6.144 28.587-7.509 42.667-7.509 76.501s1.365 47.915 7.509 76.501l1.92 8.832h161.92l-0.896-3.84zM596.181 525.227c3.797-31.061 5.12-78.933 3.115-111.787-1.195-19.029-2.56-38.229-3.115-42.667l-0.981-8.107h-166.4l-0.981 8.107c-3.797 31.061-5.12 78.933-3.115 111.787 1.195 18.987 2.56 38.187 3.115 42.667l0.981 8.107h166.4l0.981-8.107zM844.715 524.501c6.144-28.587 7.509-42.667 7.509-76.501s-1.365-47.915-7.509-76.501l-1.92-8.832h-161.92l0.896 3.84c1.707 7.723 4.309 56.832 4.309 81.493s-2.603 73.771-4.309 81.493l-0.896 3.84h161.92l1.92-8.832zM362.965 254.293c7.68-29.867 23.595-76.544 36.267-106.496 5.717-13.525 10.197-24.832 9.941-25.088-64.222 20.663-118.283 57.902-158.915 106.714l-0.445 0.55c-11.648 13.952-26.453 34.603-31.147 43.52l-2.048 3.883 140.629-0.896 5.717-22.187zM578.56 276.053c0-3.2-14.592-49.109-21.248-66.859-12.885-34.389-41.941-95.701-45.312-95.701-3.499 0-35.456 68.011-47.104 100.181-5.845 16.171-19.456 59.776-19.456 62.379 0 0.683 29.952 1.28 66.56 1.28s66.56-0.597 66.56-1.28zM805.333 273.493c-4.693-8.917-19.499-29.611-31.147-43.52-29.655-35.594-65.759-64.692-106.673-85.761l-1.913-0.895c-15.573-7.808-49.749-21.632-50.816-20.523-0.299 0.299 4.181 11.563 9.941 25.045 11.989 28.032 29.995 80.896 36.565 107.307 2.432 9.856 4.779 18.859 5.163 20.053 0.597 1.664 16.299 2.133 70.827 2.133h70.101l-2.048-3.84z" />
<glyph unicode="&#xe908;" glyph-name="linkedin-gen-2" d="M234.624 830.165c-47.744-8.107-86.955-42.88-101.76-90.325l-4.011-12.8v-558.080l4.011-12.8c13.117-41.864 45.432-74.179 86.363-87.043l0.933-0.253 12.8-4.011h558.080l12.8 4.011c41.864 13.117 74.179 45.432 87.043 86.363l0.253 0.933 4.011 12.8v558.080l-4.011 12.8c-13.049 41.546-44.977 73.67-85.467 86.737l-0.933 0.26-13.696 4.309-273.92 0.256c-150.656 0.128-277.803-0.427-282.496-1.237zM781.227 744.064c11.904-3.541 23.296-14.933 26.837-26.837 2.261-7.637 2.603-41.003 2.603-269.269 0-215.808-0.384-261.888-2.347-268.331-3.329-10.637-10.321-19.306-19.468-24.721l-0.202-0.111-7.851-4.608h-537.6l-7.851 4.608c-9.034 5.384-15.9 13.602-19.443 23.41l-0.099 0.312c-3.84 10.923-3.712 525.781 0.128 538.709 3.371 11.477 14.976 23.339 26.112 26.752 12.373 3.797 526.379 3.883 539.179 0.085zM328.32 658.901c-10.333-3.519-18.737-10.43-24.080-19.381l-0.112-0.203c-3.925-6.656-4.608-9.771-4.565-20.651 0.043-14.165 3.413-22.741 12.16-31.061 20.437-19.328 54.357-13.568 67.712 11.435 5.632 10.624 5.205 29.867-0.896 40.277-7.531 12.997-21.374 21.6-37.227 21.6-4.641 0-9.109-0.737-13.295-2.101l0.303 0.085zM328.32 530.901c-10.333-3.519-18.737-10.43-24.080-19.381l-0.112-0.203-4.608-7.851v-239.189l5.163-8.405c7.549-12.6 21.13-20.904 36.651-20.904s29.102 8.304 36.543 20.711l0.107 0.193 5.163 8.405v239.189l-4.608 7.851c-7.531 12.997-21.374 21.6-37.227 21.6-4.641 0-9.109-0.737-13.295-2.101l0.303 0.085zM498.987 530.901c-10.333-3.519-18.737-10.43-24.080-19.381l-0.112-0.203-4.608-7.851v-239.189l5.163-8.405c7.549-12.6 21.13-20.904 36.651-20.904s29.102 8.304 36.543 20.711l0.107 0.193 5.163 8.405 0.853 76.075c0.939 85.333 0.597 82.816 13.696 95.573 7.211 6.955 19.456 12.075 28.971 12.075s21.76-5.12 28.971-12.075c13.099-12.757 12.757-10.24 13.696-95.573l0.853-76.075 5.163-8.405c7.549-12.6 21.13-20.904 36.651-20.904s29.102 8.304 36.543 20.711l0.107 0.193 5.163 8.405v82.048c0 81.28-0.043 82.176-4.011 94.848-7.86 25.193-22.331 46.421-41.392 62.337l-0.208 0.169c-33.195 28.459-81.024 36.907-124.928 22.016l-12.075-4.053-5.973 3.968c-6.638 4.637-14.878 7.41-23.764 7.41-4.7 0-9.22-0.776-13.437-2.206l0.295 0.087z" />
<glyph unicode="&#xe909;" glyph-name="facebook-lint" d="M409.6 38.4v409.6h-136.533v136.533h136.533v73.318c0 138.82 67.618 199.748 182.989 199.748 55.262 0 84.48-4.096 98.304-5.973v-130.56h-78.677c-48.981 0-66.082-25.839-66.082-78.199v-58.334h143.531l-19.49-136.533h-124.041v-409.6h-136.533z" />
<glyph unicode="&#xe90a;" glyph-name="discord" d="M868.126 752.832c-85.266 68.614-220.152 80.246-225.926 80.664-8.954 0.754-17.488-4.268-21.17-12.552-0.334-0.502-3.264-7.28-6.526-17.824 56.398-9.54 125.682-28.7 188.356-67.61 10.042-6.192 13.138-19.412 6.946-29.454-4.1-6.61-11.046-10.208-18.242-10.208-3.85 0-7.782 1.088-11.296 3.264-107.776 66.858-242.326 70.204-268.266 70.204s-160.574-3.348-268.266-70.204c-10.042-6.276-23.262-3.18-29.454 6.862-6.276 10.124-3.18 23.262 6.862 29.538 62.674 38.826 131.958 58.072 188.356 67.526-3.264 10.626-6.192 17.322-6.444 17.906-3.766 8.284-12.216 13.472-21.254 12.552-5.774-0.418-140.66-12.050-227.098-81.584-45.102-41.754-135.388-285.754-135.388-496.702 0-3.766 1.004-7.364 2.844-10.626 62.256-109.448 232.202-138.066 270.944-139.322 0.168 0 0.418 0 0.67 0 6.862 0 13.304 3.264 17.322 8.786l39.16 53.888c-105.684 27.278-159.654 73.636-162.75 76.396-8.87 7.782-9.706 21.338-1.84 30.208 7.782 8.87 21.338 9.706 30.208 1.924 1.256-1.172 100.662-85.518 296.13-85.518 195.802 0 295.21 84.68 296.214 85.518 8.87 7.698 22.342 6.946 30.208-2.008 7.782-8.87 6.946-22.342-1.924-30.124-3.096-2.762-57.068-49.118-162.75-76.396l39.16-53.888c4.016-5.522 10.46-8.786 17.322-8.786 0.252 0 0.502 0 0.67 0 38.742 1.256 208.688 29.872 270.944 139.322 1.84 3.264 2.844 6.862 2.844 10.626 0 210.948-90.286 454.948-136.56 497.624zM372.762 340.894c-41.42 0-74.974 38.324-74.974 85.684s33.554 85.684 74.974 85.684c41.42 0 74.974-38.324 74.974-85.684s-33.554-85.684-74.974-85.684zM651.238 340.894c-41.42 0-74.974 38.324-74.974 85.684s33.554 85.684 74.974 85.684c41.42 0 74.974-38.324 74.974-85.684s-33.554-85.684-74.974-85.684z" />
<glyph unicode="&#xe90b;" glyph-name="tiktok" d="M534.613 959.147c55.893 0.853 111.36 0.427 166.827 0.853 3.413-65.28 26.88-131.84 74.667-177.92 47.787-47.36 115.2-69.12 180.907-76.373v-171.947c-61.44 2.133-123.307 14.933-179.2 41.387-24.32 11.093-46.933 25.173-69.12 39.68-0.427-124.587 0.427-249.173-0.853-373.333-3.413-59.733-23.040-119.040-57.6-168.107-55.893-81.92-152.747-135.253-252.16-136.96-61.013-3.413-122.027 13.227-174.080 43.947-86.187 50.773-146.773 143.787-155.733 243.627-0.853 21.333-1.28 42.667-0.427 63.573 7.68 81.067 47.787 158.72 110.080 211.627 70.827 61.44 169.813 90.88 262.4 73.387 0.853-63.147-1.707-126.293-1.707-189.44-42.24 13.653-91.733 9.813-128.853-15.787-26.88-17.493-47.36-44.373-58.027-74.667-8.96-21.76-6.4-45.653-5.973-68.693 10.24-69.973 77.653-128.853 149.333-122.453 47.787 0.427 93.44 28.16 118.187 68.693 8.107 14.080 17.067 28.587 17.493 45.227 4.267 76.373 2.56 152.32 2.987 228.693 0.427 171.947-0.427 343.467 0.853 514.987z" />
<glyph unicode="&#xe90c;" glyph-name="linkedin" d="M876 896h-728c-46.2 0-84-37.8-84-84v-728c0-46.2 37.8-84 84-84h728c46.2 0 84 37.8 84 84v728c0 46.2-37.8 84-84 84zM400 168h-112v392h112v-392zM344 616c-30.975 0-56 25.025-56 56s25.025 56 56 56c30.975 0 56-25.025 56-56s-25.025-56-56-56zM792 168h-112v224c0 30.975-25.025 56-56 56s-56-25.025-56-56v-224h-112v392h112v-69.475c23.1 31.675 58.45 69.475 98 69.475 69.65 0 126-62.65 126-140v-252z" />
<glyph unicode="&#xe90d;" glyph-name="person-add" d="M768 362.667v128h-128v85.333h128v128h85.333v-128h128v-85.333h-128v-128h-85.333zM384 448q-70.4 0-120.533 50.133t-50.133 120.533 50.133 120.533 120.533 50.133 120.533-50.133 50.133-120.533-50.133-120.533-120.533-50.133zM42.667 106.667v119.467q0 36.267 18.667 66.667t49.6 46.4q66.133 33.067 134.4 49.6t138.667 16.533 138.667-16.533 134.4-49.6q30.933-16 49.6-46.4t18.667-66.667v-119.467h-682.667zM128 192h512v34.133q0 11.733-5.867 21.333t-15.467 14.933q-57.6 28.8-116.267 43.2t-118.4 14.4-118.4-14.4-116.267-43.2q-9.6-5.333-15.467-14.933t-5.867-21.333v-34.133zM384 533.333q35.2 0 60.267 25.067t25.067 60.267-25.067 60.267-60.267 25.067-60.267-25.067-25.067-60.267 25.067-60.267 60.267-25.067z" />
<glyph unicode="&#xe90e;" glyph-name="open-in-new-tab" d="M213.333 64q-35.2 0-60.267 25.067t-25.067 60.267v597.333q0 35.2 25.067 60.267t60.267 25.067h298.667v-85.333h-298.667v-597.333h597.333v298.667h85.333v-298.667q0-35.2-25.067-60.267t-60.267-25.067h-597.333zM413.867 290.133l-59.733 59.733 396.8 396.8h-153.6v85.333h298.667v-298.667h-85.333v153.6l-396.8-396.8z" />
<glyph unicode="&#xe90f;" glyph-name="publish-changes" d="M469.333 23.467q-81.067 8.533-150.933 44.267t-121.6 92.8-81.6 130.667-29.867 156.8q0 97.067 38.933 179.2t106.133 140.8h-102.4v85.333h256v-256h-85.333v116.267q-58.667-46.933-93.333-115.733t-34.667-149.867q0-131.2 85.867-226.667t212.8-111.467v-86.4zM451.2 251.733l-180.267 181.333 59.733 59.733 120.533-120.533 242.133 242.133 59.733-60.8-301.867-301.867zM640 42.667v256h85.333v-116.267q58.667 48 93.333 116.267t34.667 149.333q0 131.2-85.867 226.667t-212.8 111.467v86.4q162.133-16 273.067-136.533t110.933-288q0-97.067-38.933-179.2t-106.133-140.8h102.4v-85.333h-256z" />
<glyph unicode="&#xe910;" glyph-name="delete-forever" d="M401.067 256l110.933 110.933 110.933-110.933 59.733 59.733-110.933 110.933 110.933 110.933-59.733 59.733-110.933-110.933-110.933 110.933-59.733-59.733 110.933-110.933-110.933-110.933 59.733-59.733zM298.667 64q-35.2 0-60.267 25.067t-25.067 60.267v554.667h-42.667v85.333h213.333v42.667h256v-42.667h213.333v-85.333h-42.667v-554.667q0-35.2-25.067-60.267t-60.267-25.067h-426.667zM725.333 704h-426.667v-554.667h426.667v554.667zM298.667 704v0z" />
<glyph unicode="&#xe911;" glyph-name="image" d="M213.333 64q-35.2 0-60.267 25.067t-25.067 60.267v597.333q0 35.2 25.067 60.267t60.267 25.067h597.333q35.2 0 60.267-25.067t25.067-60.267v-597.333q0-35.2-25.067-60.267t-60.267-25.067h-597.333zM213.333 149.333h597.333v597.333h-597.333v-597.333zM256 234.667h512l-160 213.333-128-170.667-96 128-128-170.667zM213.333 149.333v0z" />
<glyph unicode="&#xe912;" glyph-name="youtube" d="M919.972 676.794c12.244-65.229 19.113-140.57 18.643-218.641 0.811-65.187-5.247-139.375-18.643-214.203-2.432-8.874-6.399-17.193-11.604-24.53-9.684-13.694-23.805-24.104-40.486-28.797-25.768-6.868-91.978-11.732-165.399-14.547-95.136-3.669-190.484-3.669-190.484-3.669s-95.349 0-190.484 3.627c-73.42 2.816-139.631 7.636-164.929 14.419-8.746 2.432-16.894 6.356-24.146 11.434-13.267 9.386-23.464 22.866-28.584 39.376-12.159 65.101-18.942 140.186-18.473 218.001-0.896 65.699 5.162 140.442 18.643 215.867 2.432 8.874 6.399 17.193 11.604 24.53 9.684 13.694 23.805 24.104 40.486 28.797 25.768 6.868 91.978 11.732 165.399 14.547 95.136 3.627 190.484 3.627 190.484 3.627s95.349 0 190.526-3.328c73.335-2.56 140.015-6.954 164.503-12.926 9.343-2.688 17.961-7.039 25.512-12.755 13.097-9.898 22.952-23.933 27.432-40.87zM1003.034 696.418c-9.258 36.945-30.631 67.832-59.001 89.29-15.913 12.031-33.959 21.074-53.285 26.664-38.31 9.386-115.015 13.779-185.237 16.211-96.713 3.371-193.513 3.371-193.513 3.371s-96.927 0-193.726-3.712c-70.051-2.688-147.182-7.466-184.17-17.363-37.287-10.538-67.448-32.849-88.053-61.86-11.519-16.254-20.009-34.599-25.042-54.095-0.256-1.024-0.469-2.091-0.64-3.029-14.633-80.971-21.288-161.816-20.307-233.828-0.512-82.081 6.868-163.436 20.35-234.724 0.256-1.323 0.555-2.645 0.896-3.755 10.452-36.689 32.849-66.851 61.902-87.371 15.23-10.751 32.295-18.899 50.426-23.933 37.5-10.026 114.589-14.803 184.639-17.491 96.799-3.712 193.726-3.712 193.726-3.712s96.927 0 193.726 3.712c70.051 2.688 147.139 7.466 184.17 17.363 37.244 10.538 67.448 32.849 88.010 61.86 11.519 16.254 20.051 34.599 25.042 54.053 0.256 1.067 0.512 2.133 0.64 3.029 14.505 80.374 21.16 160.621 20.307 232.079 0.512 82.123-6.868 163.521-20.35 234.809-0.171 0.853-0.341 1.707-0.512 2.432zM458.673 392.498v132.336l116.338-66.168zM437.086 282.089l245.304 139.503c20.478 11.647 27.645 37.712 15.998 58.19-3.968 6.996-9.642 12.458-15.998 15.998l-245.304 139.503c-20.478 11.647-46.543 4.479-58.19-15.998-3.84-6.74-5.631-14.078-5.588-21.074v-279.007c0-23.549 19.113-42.662 42.662-42.662 7.764 0 15.017 2.091 21.074 5.588z" />
<glyph unicode="&#xe913;" glyph-name="drag" d="M384 106.667q-35.2 0-60.267 25.067t-25.067 60.267 25.067 60.267 60.267 25.067 60.267-25.067 25.067-60.267-25.067-60.267-60.267-25.067zM640 106.667q-35.2 0-60.267 25.067t-25.067 60.267 25.067 60.267 60.267 25.067 60.267-25.067 25.067-60.267-25.067-60.267-60.267-25.067zM384 362.667q-35.2 0-60.267 25.067t-25.067 60.267 25.067 60.267 60.267 25.067 60.267-25.067 25.067-60.267-25.067-60.267-60.267-25.067zM640 362.667q-35.2 0-60.267 25.067t-25.067 60.267 25.067 60.267 60.267 25.067 60.267-25.067 25.067-60.267-25.067-60.267-60.267-25.067zM384 618.667q-35.2 0-60.267 25.067t-25.067 60.267 25.067 60.267 60.267 25.067 60.267-25.067 25.067-60.267-25.067-60.267-60.267-25.067zM640 618.667q-35.2 0-60.267 25.067t-25.067 60.267 25.067 60.267 60.267 25.067 60.267-25.067 25.067-60.267-25.067-60.267-60.267-25.067z" />
<glyph unicode="&#xe914;" glyph-name="download" d="M512 277.333l-213.333 213.333 59.733 61.867 110.933-110.933v347.733h85.333v-347.733l110.933 110.933 59.733-61.867-213.333-213.333zM256 106.667q-35.2 0-60.267 25.067t-25.067 60.267v128h85.333v-128h512v128h85.333v-128q0-35.2-25.067-60.267t-60.267-25.067h-512z" />
<glyph unicode="&#xe915;" glyph-name="launch" d="M104.533 508.8l179.2 179.2q14.933 14.933 35.2 21.333t41.6 2.133l55.467-11.733q-57.6-68.267-90.667-123.733t-64-134.4l-156.8 67.2zM323.2 411.733q24.533 76.8 66.667 145.067t101.867 128q93.867 93.867 214.4 140.267t225.067 28.267q18.133-104.533-27.733-225.067t-139.733-214.4q-58.667-58.667-128-101.867t-146.133-67.733l-166.4 167.467zM617.6 539.733q24.533-24.533 60.267-24.533t60.267 24.533 24.533 60.267-24.533 60.267-60.267 24.533-60.267-24.533-24.533-60.267 24.533-60.267zM587.733 26.667l-68.267 156.8q78.933 30.933 134.933 64t124.267 90.667l10.667-55.467q4.267-21.333-2.133-42.133t-21.333-35.733l-178.133-178.133zM172.8 275.2q37.333 37.333 90.667 37.867t90.667-36.8 37.333-90.667-37.333-90.667q-26.667-26.667-89.067-45.867t-172.267-34.133q14.933 109.867 34.133 171.733t45.867 88.533z" />
<glyph unicode="&#xe916;" glyph-name="add" d="M469.333 405.333h-256v85.333h256v256h85.333v-256h256v-85.333h-256v-256h-85.333v256z" />
<glyph unicode="&#xe917;" glyph-name="tags" d="M913.067 352l-305.067-305.067q-12.8-12.8-28.8-19.2t-32-6.4-32 6.4-28.8 19.2l-376.533 376.533q-11.733 11.733-18.133 27.2t-6.4 32.533v306.133q0 35.2 25.067 60.267t60.267 25.067h306.133q17.067 0 33.067-6.933t27.733-18.667l375.467-376.533q12.8-12.8 18.667-28.8t5.867-32-5.867-31.467-18.667-28.267zM547.2 106.667l305.067 305.067-376.533 377.6h-305.067v-305.067l376.533-377.6zM277.333 618.667q26.667 0 45.333 18.667t18.667 45.333-18.667 45.333-45.333 18.667-45.333-18.667-18.667-45.333 18.667-45.333 45.333-18.667z" />
<glyph unicode="&#xe918;" glyph-name="warning" d="M42.667 64l469.333 810.667 469.333-810.667h-938.667zM189.867 149.333h644.267l-322.133 554.667-322.133-554.667zM512 192q18.133 0 30.4 12.267t12.267 30.4-12.267 30.4-30.4 12.267-30.4-12.267-12.267-30.4 12.267-30.4 30.4-12.267zM469.333 320h85.333v213.333h-85.333v-213.333z" />
<glyph unicode="&#xe919;" glyph-name="key" d="M298.667 362.667q-35.2 0-60.267 25.067t-25.067 60.267 25.067 60.267 60.267 25.067 60.267-25.067 25.067-60.267-25.067-60.267-60.267-25.067zM298.667 192q-106.667 0-181.333 74.667t-74.667 181.333 74.667 181.333 181.333 74.667q71.467 0 129.6-35.2t92.267-92.8h375.467l128-128-192-192-85.333 64-85.333-64-90.667 64h-50.133q-34.133-57.6-92.267-92.8t-129.6-35.2zM298.667 277.333q59.733 0 105.067 36.267t60.267 91.733h133.333l61.867-43.733 87.467 65.067 75.733-58.667 80 80-42.667 42.667h-395.733q-14.933 55.467-60.267 91.733t-105.067 36.267q-70.4 0-120.533-50.133t-50.133-120.533 50.133-120.533 120.533-50.133z" />
<glyph unicode="&#xe91a;" glyph-name="visibility-off" d="M686.933 392.533l-61.867 61.867q9.6 50.133-28.8 93.867t-99.2 34.133l-61.867 61.867q18.133 8.533 36.8 12.8t40 4.267q80 0 136-56t56-136q0-21.333-4.267-40t-12.8-36.8zM823.467 258.133l-61.867 59.733q40.533 30.933 72 67.733t53.867 83.733q-53.333 107.733-153.067 171.2t-222.4 63.467q-30.933 0-60.8-4.267t-58.667-12.8l-66.133 66.133q43.733 18.133 89.6 27.2t96 9.067q161.067 0 286.933-89.067t182.4-230.933q-24.533-62.933-64.533-116.8t-93.333-94.4zM844.8-4.267l-179.2 177.067q-37.333-11.733-75.2-17.6t-78.4-5.867q-161.067 0-286.933 89.067t-182.4 230.933q22.4 56.533 56.533 105.067t77.867 86.933l-117.333 119.467 59.733 59.733 785.067-785.067-59.733-59.733zM236.8 601.6q-30.933-27.733-56.533-60.8t-43.733-71.467q53.333-107.733 153.067-171.2t222.4-63.467q21.333 0 41.6 2.667t41.6 5.867l-38.4 40.533q-11.733-3.2-22.4-4.8t-22.4-1.6q-80 0-136 56t-56 136q0 11.733 1.6 22.4t4.8 22.4l-89.6 87.467z" />
<glyph unicode="&#xe91b;" glyph-name="visibility" d="M512 277.333q80 0 136 56t56 136-56 136-136 56-136-56-56-136 56-136 136-56zM512 354.133q-48 0-81.6 33.6t-33.6 81.6 33.6 81.6 81.6 33.6 81.6-33.6 33.6-81.6-33.6-81.6-81.6-33.6zM512 149.333q-155.733 0-283.733 86.933t-185.6 233.067q57.6 146.133 185.6 233.067t283.733 86.933 283.733-86.933 185.6-233.067q-57.6-146.133-185.6-233.067t-283.733-86.933zM512 234.667q120.533 0 221.333 63.467t154.133 171.2q-53.333 107.733-154.133 171.2t-221.333 63.467-221.333-63.467-154.133-171.2q53.333-107.733 154.133-171.2t221.333-63.467z" />
<glyph unicode="&#xe91c;" glyph-name="password" d="M85.333 149.333v85.333h853.333v-85.333h-853.333zM134.4 407.467l-55.467 32 36.267 64h-72.533v64h72.533l-36.267 61.867 55.467 32 36.267-61.867 36.267 61.867 55.467-32-36.267-61.867h72.533v-64h-72.533l36.267-64-55.467-32-36.267 64-36.267-64zM475.733 407.467l-55.467 32 36.267 64h-72.533v64h72.533l-36.267 61.867 55.467 32 36.267-61.867 36.267 61.867 55.467-32-36.267-61.867h72.533v-64h-72.533l36.267-64-55.467-32-36.267 64-36.267-64zM817.067 407.467l-55.467 32 36.267 64h-72.533v64h72.533l-36.267 61.867 55.467 32 36.267-61.867 36.267 61.867 55.467-32-36.267-61.867h72.533v-64h-72.533l36.267-64-55.467-32-36.267 64-36.267-64z" />
<glyph unicode="&#xe91d;" glyph-name="twitter" d="M778.411 864h141.141l-308.352-352.427 362.752-479.573h-284.032l-222.464 290.859-254.549-290.859h-141.227l329.813 376.96-347.989 455.040h291.243l201.088-265.856zM728.875 116.48h78.208l-504.832 667.477h-83.925z" />
<glyph unicode="&#xe91e;" glyph-name="camera" d="M512 213.333q80 0 136 56t56 136-56 136-136 56-136-56-56-136 56-136 136-56zM512 298.667q-44.8 0-75.733 30.933t-30.933 75.733 30.933 75.733 75.733 30.933 75.733-30.933 30.933-75.733-30.933-75.733-75.733-30.933zM170.667 64q-35.2 0-60.267 25.067t-25.067 60.267v512q0 35.2 25.067 60.267t60.267 25.067h134.4l78.933 85.333h256l78.933-85.333h134.4q35.2 0 60.267-25.067t25.067-60.267v-512q0-35.2-25.067-60.267t-60.267-25.067h-682.667zM170.667 149.333h682.667v512h-172.8l-77.867 85.333h-181.333l-77.867-85.333h-172.8v-512z" />
<glyph unicode="&#xe91f;" glyph-name="spinner" d="M384 832c0 70.692 57.308 128 128 128s128-57.308 128-128c0-70.692-57.308-128-128-128s-128 57.308-128 128zM655.53 719.53c0 70.692 57.308 128 128 128s128-57.308 128-128c0-70.692-57.308-128-128-128s-128 57.308-128 128zM832 448c0 35.346 28.654 64 64 64s64-28.654 64-64c0-35.346-28.654-64-64-64s-64 28.654-64 64zM719.53 176.47c0 35.346 28.654 64 64 64s64-28.654 64-64c0-35.346-28.654-64-64-64s-64 28.654-64 64zM448.002 64c0 0 0 0 0 0 0 35.346 28.654 64 64 64s64-28.654 64-64c0 0 0 0 0 0 0-35.346-28.654-64-64-64s-64 28.654-64 64zM176.472 176.47c0 0 0 0 0 0 0 35.346 28.654 64 64 64s64-28.654 64-64c0 0 0 0 0 0 0-35.346-28.654-64-64-64s-64 28.654-64 64zM144.472 719.53c0 0 0 0 0 0 0 53.019 42.981 96 96 96s96-42.981 96-96c0 0 0 0 0 0 0-53.019-42.981-96-96-96s-96 42.981-96 96zM56 448c0 39.765 32.235 72 72 72s72-32.235 72-72c0-39.765-32.235-72-72-72s-72 32.235-72 72z" />
<glyph unicode="&#xe920;" glyph-name="account" d="M249.6 230.4q54.4 41.6 121.6 65.6t140.8 24 140.8-24 121.6-65.6q37.333 43.733 58.133 99.2t20.8 118.4q0 141.867-99.733 241.6t-241.6 99.733-241.6-99.733-99.733-241.6q0-62.933 20.8-118.4t58.133-99.2zM512 405.333q-62.933 0-106.133 43.2t-43.2 106.133 43.2 106.133 106.133 43.2 106.133-43.2 43.2-106.133-43.2-106.133-106.133-43.2zM512 21.333q-88.533 0-166.4 33.6t-135.467 91.2-91.2 135.467-33.6 166.4 33.6 166.4 91.2 135.467 135.467 91.2 166.4 33.6 166.4-33.6 135.467-91.2 91.2-135.467 33.6-166.4-33.6-166.4-91.2-135.467-135.467-91.2-166.4-33.6zM512 106.667q56.533 0 106.667 16.533t91.733 47.467q-41.6 30.933-91.733 47.467t-106.667 16.533-106.667-16.533-91.733-47.467q41.6-30.933 91.733-47.467t106.667-16.533zM512 490.667q27.733 0 45.867 18.133t18.133 45.867-18.133 45.867-45.867 18.133-45.867-18.133-18.133-45.867 18.133-45.867 45.867-18.133z" />
<glyph unicode="&#xe921;" glyph-name="logout" d="M213.333 64q-35.2 0-60.267 25.067t-25.067 60.267v597.333q0 35.2 25.067 60.267t60.267 25.067h298.667v-85.333h-298.667v-597.333h298.667v-85.333h-298.667zM682.667 234.667l-58.667 61.867 108.8 108.8h-348.8v85.333h348.8l-108.8 108.8 58.667 61.867 213.333-213.333-213.333-213.333z" />
<glyph unicode="&#xe922;" glyph-name="bar-chart" d="M170.667 106.667v341.333h170.667v-341.333h-170.667zM426.667 106.667v682.667h170.667v-682.667h-170.667zM682.667 106.667v469.333h170.667v-469.333h-170.667z" />
<glyph unicode="&#xe923;" glyph-name="brain" d="M416 64q-54.4 0-93.867 37.867t-44.8 91.2q-64 8.533-106.667 56.533t-42.667 113.067q0 22.4 5.867 44.267t17.6 41.067q-11.733 19.2-17.6 40.533t-5.867 44.8q0 65.067 42.667 112.533t105.6 56q3.2 54.4 43.733 92.267t96 37.867q27.733 0 51.733-10.667t44.267-28.8q19.2 18.133 43.733 28.8t52.267 10.667q55.467 0 95.467-37.333t43.2-91.733q62.933-8.533 106.133-56.533t43.2-113.067q0-23.467-5.867-44.8t-17.6-40.533q11.733-19.2 17.6-41.067t5.867-44.267q0-66.133-43.2-113.6t-107.2-56q-5.333-53.333-44.267-91.2t-93.333-37.867q-26.667 0-51.733 10.133t-44.267 28.267q-20.267-18.133-44.8-28.267t-51.2-10.133zM554.667 693.333v-490.667q0-22.4 15.467-37.867t37.867-15.467q21.333 0 36.8 17.067t16.533 38.4q-22.4 8.533-41.067 22.933t-33.6 34.667q-10.667 14.933-8 32t17.6 27.733 32 8 27.733-17.6q11.733-17.067 29.867-26.133t39.467-9.067q35.2 0 60.267 25.067t25.067 60.267q0 5.333-0.533 10.667t-2.667 10.667q-18.133-10.667-38.933-16t-43.2-5.333q-18.133 0-30.4 12.267t-12.267 30.4 12.267 30.4 30.4 12.267q35.2 0 60.267 25.067t25.067 60.267-25.067 59.733-60.267 25.6q-11.733-19.2-30.4-33.6t-41.067-22.933q-17.067-6.4-33.067 1.067t-21.333 24.533 1.6 33.067 24 21.333q16 5.333 26.133 19.2t10.133 32q0 22.4-15.467 37.867t-37.867 15.467-37.867-15.467-15.467-37.867zM469.333 202.667v490.667q0 22.4-15.467 37.867t-37.867 15.467-37.867-15.467-15.467-37.867q0-17.067 9.6-31.467t25.6-19.733q17.067-5.333 24.533-21.333t2.133-33.067q-6.4-17.067-22.4-24.533t-33.067-1.067q-22.4 8.533-41.067 22.933t-30.4 33.6q-34.133-1.067-59.2-26.133t-25.067-59.2q0-35.2 25.067-60.267t60.267-25.067q18.133 0 30.4-12.267t12.267-30.4-12.267-30.4-30.4-12.267q-22.4 0-43.2 5.333t-38.933 16q-2.133-5.333-2.667-10.667t-0.533-10.667q0-35.2 25.067-60.267t60.267-25.067q21.333 0 39.467 9.067t29.867 26.133q10.667 14.933 27.733 17.6t32-8 17.6-27.733-8-32q-14.933-20.267-34.133-35.2t-41.6-23.467q1.067-21.333 17.067-37.867t37.333-16.533q22.4 0 37.867 15.467t15.467 37.867z" />
<glyph unicode="&#xe924;" glyph-name="project" d="M469.333 131.2v292.267l-256 148.267v-292.267l256-148.267zM554.667 131.2l256 148.267v292.267l-256-148.267v-292.267zM512 497.067l252.8 146.133-252.8 146.133-252.8-146.133 252.8-146.133zM170.667 204.8q-20.267 11.733-31.467 30.933t-11.2 42.667v339.2q0 23.467 11.2 42.667t31.467 30.933l298.667 171.733q20.267 11.733 42.667 11.733t42.667-11.733l298.667-171.733q20.267-11.733 31.467-30.933t11.2-42.667v-339.2q0-23.467-11.2-42.667t-31.467-30.933l-298.667-171.733q-20.267-11.733-42.667-11.733t-42.667 11.733l-298.667 171.733z" />
<glyph unicode="&#xe925;" glyph-name="public" d="M512 21.333q-88.533 0-166.4 33.6t-135.467 91.2-91.2 135.467-33.6 166.4 33.6 166.4 91.2 135.467 135.467 91.2 166.4 33.6 166.4-33.6 135.467-91.2 91.2-135.467 33.6-166.4-33.6-166.4-91.2-135.467-135.467-91.2-166.4-33.6zM469.333 108.8v83.2q-35.2 0-60.267 25.067t-25.067 60.267v42.667l-204.8 204.8q-3.2-19.2-5.867-38.4t-2.667-38.4q0-129.067 84.8-226.133t213.867-113.067zM763.733 217.6q21.333 23.467 38.4 50.667t28.267 56.533 17.067 60.267 5.867 62.933q0 104.533-58.133 190.933t-155.2 124.8v-17.067q0-35.2-25.067-60.267t-60.267-25.067h-85.333v-85.333q0-18.133-12.267-30.4t-30.4-12.267h-85.333v-85.333h256q18.133 0 30.4-12.267t12.267-30.4v-128h42.667q27.733 0 50.133-16.533t30.933-43.2z" />
<glyph unicode="&#xe926;" glyph-name="work" d="M128 64v597.333h170.667v170.667h426.667v-341.333h170.667v-426.667h-341.333v170.667h-85.333v-170.667h-341.333zM213.333 149.333h85.333v85.333h-85.333v-85.333zM213.333 320h85.333v85.333h-85.333v-85.333zM213.333 490.667h85.333v85.333h-85.333v-85.333zM384 320h85.333v85.333h-85.333v-85.333zM384 490.667h85.333v85.333h-85.333v-85.333zM384 661.333h85.333v85.333h-85.333v-85.333zM554.667 320h85.333v85.333h-85.333v-85.333zM554.667 490.667h85.333v85.333h-85.333v-85.333zM554.667 661.333h85.333v85.333h-85.333v-85.333zM725.333 149.333h85.333v85.333h-85.333v-85.333zM725.333 320h85.333v85.333h-85.333v-85.333z" />
<glyph unicode="&#xe927;" glyph-name="bookmark" d="M213.333 64v682.667q0 35.2 25.067 60.267t60.267 25.067h426.667q35.2 0 60.267-25.067t25.067-60.267v-682.667l-298.667 128-298.667-128zM298.667 194.133l213.333 91.733 213.333-91.733v552.533h-426.667v-552.533zM298.667 746.667v0z" />
<glyph unicode="&#xe928;" glyph-name="calendar" d="M213.333 21.333q-35.2 0-60.267 25.067t-25.067 60.267v597.333q0 35.2 25.067 60.267t60.267 25.067h42.667v85.333h85.333v-85.333h341.333v85.333h85.333v-85.333h42.667q35.2 0 60.267-25.067t25.067-60.267v-597.333q0-35.2-25.067-60.267t-60.267-25.067h-597.333zM213.333 106.667h597.333v426.667h-597.333v-426.667zM213.333 618.667h597.333v85.333h-597.333v-85.333zM213.333 618.667v0z" />
<glyph unicode="&#xe929;" glyph-name="key-off" d="M842.667-3.2l-322.133 322.133q-34.133-57.6-92.8-92.267t-129.067-34.667q-106.667 0-181.333 74.667t-74.667 181.333q0 70.4 34.667 129.067t92.267 92.8l-108.8 108.8 60.8 59.733 780.8-781.867-59.733-59.733zM896 576l128-128-195.2-195.2-135.467 134.4 53.333 39.467 76.8-57.6 80 78.933-42.667 42.667h-270.933l-85.333 85.333h391.467zM298.667 277.333q54.4 0 96.533 29.333t61.333 76.267l-222.933 222.933q-46.933-19.2-76.267-61.333t-29.333-96.533q0-70.4 50.133-120.533t120.533-50.133zM298.667 362.667q-35.2 0-60.267 25.067t-25.067 60.267 25.067 60.267 60.267 25.067 60.267-25.067 25.067-60.267-25.067-60.267-60.267-25.067z" />
<glyph unicode="&#xe92a;" glyph-name="menu-open" d="M128 192v85.333h554.667v-85.333h-554.667zM836.267 234.667l-213.333 213.333 213.333 213.333 59.733-59.733-153.6-153.6 153.6-153.6-59.733-59.733zM128 405.333v85.333h426.667v-85.333h-426.667zM128 618.667v85.333h554.667v-85.333h-554.667z" />
<glyph unicode="&#xe92b;" glyph-name="menu" d="M128 192v85.333h768v-85.333h-768zM128 405.333v85.333h768v-85.333h-768zM128 618.667v85.333h768v-85.333h-768z" />
<glyph unicode="&#xe92c;" glyph-name="notification" d="M512 21.333c46.933 0 85.333 38.4 85.333 85.333h-170.667c0-46.933 38.4-85.333 85.333-85.333zM768 277.333v213.333c0 130.987-69.547 240.64-192 269.653v29.013c0 35.413-28.587 64-64 64s-64-28.587-64-64v-29.013c-122.027-29.013-192-138.24-192-269.653v-213.333l-85.333-85.333v-42.667h682.667v42.667l-85.333 85.333zM682.667 234.667h-341.333v256c0 105.813 64.427 192 170.667 192s170.667-86.187 170.667-192v-256z" />
<glyph unicode="&#xe92d;" glyph-name="celebration" d="M85.333 21.333l597.333 213.333-384 384-213.333-597.333zM526.933 269.653l-300.8-107.52 107.52 300.8 193.28-193.28zM619.947 425.387l238.507 238.507c20.907 20.907 54.613 20.907 75.52 0l25.173-25.173 45.227 45.227-25.173 25.173c-45.653 45.653-120.32 45.653-165.973 0l-238.507-238.507 45.227-45.227zM429.227 666.453l-25.173-25.173 45.227-45.227 25.173 25.173c45.653 45.653 45.653 120.32 0 165.973l-25.173 25.173-45.227-45.653 25.173-25.173c20.48-20.48 20.48-54.613 0-75.093zM727.893 453.12l-67.84-67.84 45.227-45.227 67.84 67.84c20.907 20.907 54.613 20.907 75.52 0l68.693-68.693 45.227 45.227-68.693 68.693c-46.080 45.653-120.32 45.653-165.973 0zM642.56 709.12l-153.173-153.173 45.227-45.227 153.173 153.173c45.653 45.653 45.653 120.32 0 165.973l-67.84 67.84-45.227-45.227 67.84-67.84c20.48-20.907 20.48-55.040 0-75.52z" />
<glyph unicode="&#xe92e;" glyph-name="more-vert" d="M512 106.667q-35.2 0-60.267 25.067t-25.067 60.267 25.067 60.267 60.267 25.067 60.267-25.067 25.067-60.267-25.067-60.267-60.267-25.067zM512 362.667q-35.2 0-60.267 25.067t-25.067 60.267 25.067 60.267 60.267 25.067 60.267-25.067 25.067-60.267-25.067-60.267-60.267-25.067zM512 618.667q-35.2 0-60.267 25.067t-25.067 60.267 25.067 60.267 60.267 25.067 60.267-25.067 25.067-60.267-25.067-60.267-60.267-25.067z" />
<glyph unicode="&#xe92f;" glyph-name="dissatified" d="M512 384q-72.533 0-131.733-41.067t-85.867-108.267h435.2q-26.667 67.2-85.867 108.267t-131.733 41.067zM332.8 448l46.933 44.8 44.8-44.8 44.8 44.8-44.8 44.8 44.8 46.933-44.8 44.8-44.8-44.8-46.933 44.8-44.8-44.8 44.8-46.933-44.8-44.8 44.8-44.8zM599.467 448l44.8 44.8 46.933-44.8 44.8 44.8-44.8 44.8 44.8 46.933-44.8 44.8-46.933-44.8-44.8 44.8-44.8-44.8 44.8-46.933-44.8-44.8 44.8-44.8zM512 21.333q-88.533 0-166.4 33.6t-135.467 91.2-91.2 135.467-33.6 166.4 33.6 166.4 91.2 135.467 135.467 91.2 166.4 33.6 166.4-33.6 135.467-91.2 91.2-135.467 33.6-166.4-33.6-166.4-91.2-135.467-135.467-91.2-166.4-33.6zM512 106.667q142.933 0 242.133 99.2t99.2 242.133-99.2 242.133-242.133 99.2-242.133-99.2-99.2-242.133 99.2-242.133 242.133-99.2z" />
<glyph unicode="&#xe930;" glyph-name="user-settings" d="M426.667 448q-70.4 0-120.533 50.133t-50.133 120.533 50.133 120.533 120.533 50.133 120.533-50.133 50.133-120.533-50.133-120.533-120.533-50.133zM85.333 106.667v119.467q0 35.2 18.133 66.133t50.133 46.933q54.4 27.733 122.667 46.933t150.4 19.2h14.933q6.4 0 12.8-2.133-8.533-19.2-14.4-40t-9.067-43.2h-4.267q-75.733 0-136-19.2t-98.667-38.4q-9.6-5.333-15.467-14.933t-5.867-21.333v-34.133h268.8q6.4-22.4 17.067-44.267t23.467-41.067h-394.667zM682.667 64l-12.8 64q-12.8 5.333-24 11.2t-22.933 14.4l-61.867-19.2-42.667 72.533 49.067 42.667q-2.133 14.933-2.133 27.733t2.133 27.733l-49.067 42.667 42.667 72.533 61.867-19.2q11.733 8.533 22.933 14.4t24 11.2l12.8 64h85.333l12.8-64q12.8-5.333 24-11.733t22.933-16l61.867 21.333 42.667-74.667-49.067-42.667q2.133-12.8 2.133-26.667t-2.133-26.667l49.067-42.667-42.667-72.533-61.867 19.2q-11.733-8.533-22.933-14.4t-24-11.2l-12.8-64h-85.333zM725.333 192q35.2 0 60.267 25.067t25.067 60.267-25.067 60.267-60.267 25.067-60.267-25.067-25.067-60.267 25.067-60.267 60.267-25.067zM426.667 533.333q35.2 0 60.267 25.067t25.067 60.267-25.067 60.267-60.267 25.067-60.267-25.067-25.067-60.267 25.067-60.267 60.267-25.067z" />
<glyph unicode="&#xe931;" glyph-name="excited" d="M341.333 448v-85.333q0-70.4 50.133-120.533t120.533-50.133 120.533 50.133 50.133 120.533v85.333h-341.333zM512 256q-44.8 0-75.733 30.933t-30.933 75.733v21.333h213.333v-21.333q0-44.8-30.933-75.733t-75.733-30.933zM362.667 661.333q-40.533 0-72-29.333t-44.267-80.533l61.867-14.933q6.4 27.733 21.333 44.267t33.067 16.533 33.067-16.533 21.333-44.267l61.867 14.933q-12.8 51.2-44.267 80.533t-72 29.333zM661.333 661.333q-40.533 0-72-29.333t-44.267-80.533l61.867-14.933q6.4 27.733 21.333 44.267t33.067 16.533 33.067-16.533 21.333-44.267l61.867 14.933q-12.8 51.2-44.267 80.533t-72 29.333zM512 21.333q-88.533 0-166.4 33.6t-135.467 91.2-91.2 135.467-33.6 166.4 33.6 166.4 91.2 135.467 135.467 91.2 166.4 33.6 166.4-33.6 135.467-91.2 91.2-135.467 33.6-166.4-33.6-166.4-91.2-135.467-135.467-91.2-166.4-33.6zM512 106.667q142.933 0 242.133 99.2t99.2 242.133-99.2 242.133-242.133 99.2-242.133-99.2-99.2-242.133 99.2-242.133 242.133-99.2z" />
<glyph unicode="&#xe932;" glyph-name="edit" d="M213.333 149.333h60.8l417.067 417.067-60.8 60.8-417.067-417.067v-60.8zM128 64v181.333l563.2 562.133q12.8 11.733 28.267 18.133t32.533 6.4 33.067-6.4 27.733-19.2l58.667-59.733q12.8-11.733 18.667-27.733t5.867-32q0-17.067-5.867-32.533t-18.667-28.267l-562.133-562.133h-181.333zM810.667 686.933v0zM660.267 596.267l-29.867 30.933 60.8-60.8-30.933 29.867z" />
<glyph unicode="&#xe933;" glyph-name="add-box" d="M469.333 234.667h85.333v170.667h170.667v85.333h-170.667v170.667h-85.333v-170.667h-170.667v-85.333h170.667v-170.667zM213.333 64q-35.2 0-60.267 25.067t-25.067 60.267v597.333q0 35.2 25.067 60.267t60.267 25.067h597.333q35.2 0 60.267-25.067t25.067-60.267v-597.333q0-35.2-25.067-60.267t-60.267-25.067h-597.333z" />
<glyph unicode="&#xe934;" glyph-name="close" d="M273.067 149.333l-59.733 59.733 238.933 238.933-238.933 238.933 59.733 59.733 238.933-238.933 238.933 238.933 59.733-59.733-238.933-238.933 238.933-238.933-59.733-59.733-238.933 238.933-238.933-238.933z" />
<glyph unicode="&#xe935;" glyph-name="delete" d="M298.667 64q-35.2 0-60.267 25.067t-25.067 60.267v554.667h-42.667v85.333h213.333v42.667h256v-42.667h213.333v-85.333h-42.667v-554.667q0-35.2-25.067-60.267t-60.267-25.067h-426.667zM725.333 704h-426.667v-554.667h426.667v554.667zM384 234.667h85.333v384h-85.333v-384zM554.667 234.667h85.333v384h-85.333v-384zM298.667 704v0z" />
<glyph unicode="&#xe936;" glyph-name="filter" d="M469.333 64v256h85.333v-85.333h341.333v-85.333h-341.333v-85.333h-85.333zM128 149.333v85.333h256v-85.333h-256zM298.667 320v85.333h-170.667v85.333h170.667v85.333h85.333v-256h-85.333zM469.333 405.333v85.333h426.667v-85.333h-426.667zM640 576v256h85.333v-85.333h170.667v-85.333h-170.667v-85.333h-85.333zM128 661.333v85.333h426.667v-85.333h-426.667z" />
<glyph unicode="&#xe937;" glyph-name="qr-code" d="M554.667 64v85.333h85.333v-85.333h-85.333zM469.333 149.333v213.333h85.333v-213.333h-85.333zM810.667 277.333v170.667h85.333v-170.667h-85.333zM725.333 448v85.333h85.333v-85.333h-85.333zM213.333 362.667v85.333h85.333v-85.333h-85.333zM128 448v85.333h85.333v-85.333h-85.333zM512 746.667v85.333h85.333v-85.333h-85.333zM192 640h128v128h-128v-128zM128 576v256h256v-256h-256zM192 128h128v128h-128v-128zM128 64v256h256v-256h-256zM704 640h128v128h-128v-128zM640 576v256h256v-256h-256zM725.333 64v128h-85.333v85.333h170.667v-128h85.333v-85.333h-170.667zM554.667 362.667v85.333h170.667v-85.333h-170.667zM384 362.667v85.333h-85.333v85.333h256v-85.333h-85.333v-85.333h-85.333zM426.667 576v170.667h85.333v-85.333h85.333v-85.333h-170.667zM224 672v64h64v-64h-64zM224 160v64h64v-64h-64zM736 672v64h64v-64h-64z" />
<glyph unicode="&#xe938;" glyph-name="chart" d="M128 64v85.333l85.333 85.333v-170.667h-85.333zM298.667 64v256l85.333 85.333v-341.333h-85.333zM469.333 64v341.333l85.333-86.4v-254.933h-85.333zM640 64v254.933l85.333 85.333v-340.267h-85.333zM810.667 64v426.667l85.333 85.333v-512h-85.333zM128 284.8v120.533l298.667 298.667 170.667-170.667 298.667 298.667v-120.533l-298.667-298.667-170.667 170.667-298.667-298.667z" />
<glyph unicode="&#xe939;" glyph-name="chevron-left" d="M597.333 192l-256 256 256 256 59.733-59.733-196.267-196.267 196.267-196.267-59.733-59.733z" />
<glyph unicode="&#xe93a;" glyph-name="chevron-up" d="M315.733 304l-59.733 59.733 256 256 256-256-59.733-59.733-196.267 196.267-196.267-196.267z" />
<glyph unicode="&#xe93b;" glyph-name="chevron-down" d="M512 304l-256 256 59.733 59.733 196.267-196.267 196.267 196.267 59.733-59.733-256-256z" />
<glyph unicode="&#xe93c;" glyph-name="instagram" d="M512 815.314c119.696 0 133.872-0.525 180.944-2.624 43.748-1.925 67.374-9.274 83.122-15.4 20.824-8.050 35.874-17.85 51.448-33.424 15.75-15.75 25.374-30.624 33.599-51.448 6.124-15.75 13.474-39.548 15.4-83.122 2.1-47.248 2.624-61.424 2.624-180.944s-0.525-133.872-2.624-180.944c-1.925-43.748-9.274-67.374-15.4-83.122-8.050-20.824-17.85-35.874-33.424-51.448-15.75-15.75-30.624-25.374-51.448-33.599-15.75-6.124-39.548-13.474-83.122-15.4-47.248-2.1-61.424-2.624-180.944-2.624s-133.872 0.525-180.944 2.624c-43.748 1.925-67.374 9.274-83.122 15.4-20.824 8.050-35.874 17.85-51.448 33.424-15.75 15.75-25.374 30.624-33.599 51.448-6.124 15.75-13.474 39.548-15.4 83.122-2.1 47.248-2.624 61.424-2.624 180.944s0.525 133.872 2.624 180.944c1.925 43.748 9.274 67.374 15.4 83.122 8.050 20.824 17.85 35.874 33.424 51.448 15.75 15.75 30.624 25.374 51.448 33.599 15.75 6.124 39.548 13.474 83.122 15.4 47.074 2.1 61.248 2.624 180.944 2.624zM512 895.988c-121.622 0-136.846-0.525-184.62-2.624-47.598-2.1-80.322-9.8-108.672-20.824-29.574-11.55-54.598-26.774-79.448-51.798-25.024-24.85-40.248-49.874-51.798-79.272-11.024-28.524-18.724-61.074-20.824-108.672-2.1-47.948-2.624-63.174-2.624-184.794s0.525-136.846 2.624-184.62c2.1-47.598 9.8-80.322 20.824-108.672 11.55-29.574 26.774-54.598 51.798-79.448 24.85-24.85 49.874-40.248 79.272-51.624 28.524-11.024 61.074-18.724 108.672-20.824 47.774-2.1 62.998-2.624 184.62-2.624s136.846 0.525 184.62 2.624c47.598 2.1 80.322 9.8 108.672 20.824 29.4 11.374 54.424 26.774 79.272 51.624s40.248 49.874 51.624 79.272c11.024 28.524 18.724 61.074 20.824 108.672 2.1 47.774 2.624 62.998 2.624 184.62s-0.525 136.846-2.624 184.62c-2.1 47.598-9.8 80.322-20.824 108.672-11.024 29.75-26.25 54.774-51.274 79.622-24.85 24.85-49.874 40.248-79.272 51.624-28.524 11.024-61.074 18.724-108.672 20.824-47.948 2.274-63.174 2.8-184.794 2.8v0zM512 678.118c-127.046 0-230.118-103.072-230.118-230.118s103.072-230.118 230.118-230.118 230.118 103.072 230.118 230.118c0 127.046-103.072 230.118-230.118 230.118zM512 298.73c-82.422 0-149.27 66.848-149.27 149.27s66.848 149.27 149.27 149.27c82.422 0 149.27-66.848 149.27-149.27s-66.848-149.27-149.27-149.27zM804.942 687.218c0-29.67-24.054-53.724-53.724-53.724s-53.724 24.054-53.724 53.724c0 29.67 24.054 53.724 53.724 53.724s53.724-24.054 53.724-53.724z" />
<glyph unicode="&#xe93d;" glyph-name="star" d="M377.6 242.133l134.4 81.067 134.4-82.133-35.2 153.6 118.4 102.4-155.733 13.867-61.867 145.067-61.867-144-155.733-13.867 118.4-103.467-35.2-152.533zM248.533 64l69.333 299.733-232.533 201.6 307.2 26.667 119.467 282.667 119.467-282.667 307.2-26.667-232.533-201.6 69.333-299.733-263.467 158.933-263.467-158.933z" />
<glyph unicode="&#xe93e;" glyph-name="settings" d="M394.667 21.333l-17.067 136.533q-13.867 5.333-26.133 12.8t-24 16l-126.933-53.333-117.333 202.667 109.867 83.2q-1.067 7.467-1.067 14.4v28.8q0 6.933 1.067 14.4l-109.867 83.2 117.333 202.667 126.933-53.333q11.733 8.533 24.533 16t25.6 12.8l17.067 136.533h234.667l17.067-136.533q13.867-5.333 26.133-12.8t24-16l126.933 53.333 117.333-202.667-109.867-83.2q1.067-7.467 1.067-14.4v-28.8q0-6.933-2.133-14.4l109.867-83.2-117.333-202.667-125.867 53.333q-11.733-8.533-24.533-16t-25.6-12.8l-17.067-136.533h-234.667zM469.333 106.667h84.267l14.933 113.067q33.067 8.533 61.333 25.067t51.733 40l105.6-43.733 41.6 72.533-91.733 69.333q5.333 14.933 7.467 31.467t2.133 33.6-2.133 33.6-7.467 31.467l91.733 69.333-41.6 72.533-105.6-44.8q-23.467 24.533-51.733 41.067t-61.333 25.067l-13.867 113.067h-84.267l-14.933-113.067q-33.067-8.533-61.333-25.067t-51.733-40l-105.6 43.733-41.6-72.533 91.733-68.267q-5.333-16-7.467-32t-2.133-34.133q0-17.067 2.133-33.067t7.467-32l-91.733-69.333 41.6-72.533 105.6 44.8q23.467-24.533 51.733-41.067t61.333-25.067l13.867-113.067zM514.133 298.667q61.867 0 105.6 43.733t43.733 105.6-43.733 105.6-105.6 43.733q-62.933 0-106.133-43.733t-43.2-105.6 43.2-105.6 106.133-43.733z" />
<glyph unicode="&#xe93f;" glyph-name="info" d="M469.333 234.667h85.333v256h-85.333v-256zM512 576q18.133 0 30.4 12.267t12.267 30.4-12.267 30.4-30.4 12.267-30.4-12.267-12.267-30.4 12.267-30.4 30.4-12.267zM512 21.333q-88.533 0-166.4 33.6t-135.467 91.2-91.2 135.467-33.6 166.4 33.6 166.4 91.2 135.467 135.467 91.2 166.4 33.6 166.4-33.6 135.467-91.2 91.2-135.467 33.6-166.4-33.6-166.4-91.2-135.467-135.467-91.2-166.4-33.6zM512 106.667q142.933 0 242.133 99.2t99.2 242.133-99.2 242.133-242.133 99.2-242.133-99.2-99.2-242.133 99.2-242.133 242.133-99.2z" />
<glyph unicode="&#xe940;" glyph-name="rewrite" d="M532.267 242.133l357.333 357.333-55.467 55.467-357.333-357.333 55.467-55.467zM253.867 149.333q-106.667 5.333-158.933 44.8t-52.267 114.133q0 69.333 57.067 112.533t158.4 51.733q41.6 3.2 62.4 13.333t20.8 28.267q0 27.733-31.467 41.6t-104 20.267l7.467 85.333q109.867-8.533 161.6-44.267t51.733-102.933q0-56.533-41.067-88.533t-121.067-38.4q-68.267-5.333-102.4-25.067t-34.133-53.867q0-37.333 29.867-53.867t100.267-19.733l-4.267-85.333zM552.533 141.867l-176 176 407.467 407.467q21.333 21.333 50.667 21.333t50.667-21.333l74.667-74.667q21.333-21.333 21.333-50.667t-21.333-50.667l-407.467-407.467zM382.933 106.667q-18.133-4.267-32 9.6t-9.6 32l35.2 169.6 176-176-169.6-35.2z" />
<glyph unicode="&#xe941;" glyph-name="click" d="M85.333 448v85.333h128v-85.333h-128zM230.4 211.2l-59.733 61.867 89.6 89.6 61.867-59.733-91.733-91.733zM260.267 618.667l-89.6 89.6 59.733 61.867 91.733-91.733-61.867-59.733zM768 106.667l-202.667 202.667-53.333-160-128 426.667 426.667-128-157.867-55.467 200.533-200.533-85.333-85.333zM426.667 704v128h85.333v-128h-85.333zM678.4 618.667l-61.867 59.733 91.733 91.733 59.733-59.733-89.6-91.733z" />
<glyph unicode="&#xe942;" glyph-name="chevron-right" d="M537.6 448l-196.267 196.267 59.733 59.733 256-256-256-256-59.733 59.733 196.267 196.267z" />
<glyph unicode="&#xe943;" glyph-name="link" d="M469.333 234.667h-170.667q-88.533 0-150.933 62.4t-62.4 150.933 62.4 150.933 150.933 62.4h170.667v-85.333h-170.667q-53.333 0-90.667-37.333t-37.333-90.667 37.333-90.667 90.667-37.333h170.667v-85.333zM341.333 405.333v85.333h341.333v-85.333h-341.333zM554.667 234.667v85.333h170.667q53.333 0 90.667 37.333t37.333 90.667-37.333 90.667-90.667 37.333h-170.667v85.333h170.667q88.533 0 150.933-62.4t62.4-150.933-62.4-150.933-150.933-62.4h-170.667z" />
<glyph unicode="&#xe944;" glyph-name="github-gen-2" d="M226.773 870.4c33.749 4.821 81.067-6.187 142.208-41.216l11.605-6.869 6.827-4.267 16.939 3.541c32.369 6.555 69.577 10.306 107.661 10.306 31.13 0 61.674-2.507 91.442-7.329l-3.262 0.436 19.456-3.413 16.896-3.541 6.869 4.267c59.093 35.84 106.112 49.92 141.739 48.981l6.997-0.341 6.272-0.725 3.243-0.597 2.133-0.469 6.144-2.005c10.113-4.256 18.066-11.987 22.504-21.665l0.109-0.266c12.288-26.703 19.453-57.94 19.453-90.85 0-11.756-0.914-23.298-2.676-34.56l0.161 1.25-2.005-11.392-1.963-8.363 5.248-6.955c24.491-33.92 39.68-73.728 43.947-115.499l0.981-12.587 0.299-11.605c0-164.48-70.784-251.008-198.144-285.013l-10.453-2.603-5.632-1.237 0.597-6.869 0.341-6.699 0.171-15.573-0.085-9.088-0.128-163.584c-0.003-21.803-16.359-39.784-37.47-42.348l-0.205-0.020-4.992-0.299h-256c-21.803 0.003-39.784 16.359-42.348 37.47l-0.020 0.205-0.299 4.992v31.317c-77.568-11.093-129.28 18.091-175.36 80.128l-22.827 32.683c-11.947 16.896-19.413 24.704-25.131 27.477l-2.048 0.811c-17.256 5.732-29.481 21.727-29.481 40.578 0 23.564 19.103 42.667 42.667 42.667 3.867 0 7.614-0.515 11.177-1.479l-0.299 0.069c27.392-8.021 45.824-24.235 66.987-52.864l22.955-32.811c32.427-46.037 58.027-62.251 111.317-50.816l0.043 28.928-0.768 7.168c-0.789 6.909-1.239 14.916-1.239 23.028 0 4.267 0.125 8.505 0.37 12.71l-0.027-0.581 0.725 7.893 0.811 5.12-4.608 1.024c-126.976 30.293-200.661 109.781-208 261.931l-0.427 13.227-0.171 12.459c0.053 48.422 14.503 93.459 39.297 131.073l-0.555-0.897 6.485 9.472 5.205 6.955-1.92 8.363c-2.88 13.409-4.53 28.814-4.53 44.604 0 24.344 3.921 47.773 11.165 69.688l-0.449-1.567 4.267 12.032 4.523 10.795c4.538 9.937 12.475 17.666 22.291 21.825l0.28 0.105 6.144 2.005 6.571 1.28z" />
<glyph unicode="&#xe945;" glyph-name="discord-gen-2" d="M639.275 832l5.248-0.256c85.931-9.131 150.485-28.672 211.883-71.381 7.235-5.094 12.74-12.21 15.736-20.524l0.094-0.297c80.043-226.773 101.248-426.112 61.909-523.947-42.795-85.547-111.189-151.595-187.477-151.595-31.232 0-72.235 41.301-99.328 87.253 36.433 6.645 66.638 13.938 96.221 22.681l-6.493-1.646c18.019 5.272 30.956 21.648 30.956 41.045 0 23.577-19.113 42.689-42.689 42.689-4.179 0-8.218-0.601-12.035-1.72l0.302 0.076c-141.653-40.533-261.547-40.533-403.2 0-3.515 1.044-7.554 1.644-11.733 1.644-23.577 0-42.689-19.113-42.689-42.689 0-19.398 12.937-35.773 30.654-40.969l0.302-0.076c30.592-8.704 60.416-15.787 89.728-21.077-27.093-45.867-68.096-87.211-99.328-87.211-76.288 0-144.683 66.048-188.928 154.837-37.888 94.592-16.64 293.973 63.36 520.704 3.089 8.611 8.594 15.727 15.694 20.731l0.135 0.090c61.397 42.709 125.952 62.251 211.883 71.381 1.358 0.153 2.932 0.241 4.526 0.241 14.659 0 27.592-7.393 35.273-18.653l0.095-0.147 2.688-4.565 27.776-54.827 5.845 0.683c16.91 1.834 36.525 2.88 56.384 2.88s39.473-1.046 58.791-3.086l-2.407 0.206 5.717-0.683 27.733 54.784c6.292 12.283 18.031 21.003 31.941 23.013l0.229 0.027 5.205 0.384zM384 533.333c-0.001 0-0.002 0-0.004 0-42.565 0-77.852-31.165-84.285-71.922l-0.063-0.483-0.768-6.571-0.213-6.357 0.213-6.4c3.432-44.293 40.217-78.933 85.093-78.933 47.128 0 85.333 38.205 85.333 85.333 0 47.119-38.19 85.318-85.305 85.333h-0.002zM640 533.333c-0.001 0-0.002 0-0.004 0-42.565 0-77.852-31.165-84.285-71.922l-0.063-0.483-0.768-6.571-0.213-6.357 0.213-6.4c3.432-44.293 40.217-78.933 85.093-78.933 47.128 0 85.333 38.205 85.333 85.333 0 47.119-38.19 85.318-85.305 85.333h-0.002z" />
<glyph unicode="&#xe946;" glyph-name="copy" d="M384 192q-35.2 0-60.267 25.067t-25.067 60.267v512q0 35.2 25.067 60.267t60.267 25.067h384q35.2 0 60.267-25.067t25.067-60.267v-512q0-35.2-25.067-60.267t-60.267-25.067h-384zM384 277.333h384v512h-384v-512zM213.333 21.333q-35.2 0-60.267 25.067t-25.067 60.267v597.333h85.333v-597.333h469.333v-85.333h-469.333zM384 277.333v0z" />
<glyph unicode="&#xe947;" glyph-name="x-gen-2" d="M352.725 832c12.279-0.005 23.344-5.196 31.125-13.502l0.022-0.024 3.243-3.925 182.357-248.661 253.696 253.611c7.716 7.691 18.362 12.446 30.119 12.446 23.564 0 42.667-19.103 42.667-42.667 0-9.874-3.354-18.964-8.985-26.194l0.072 0.095-3.541-4.011-262.955-262.912 267.179-364.373c5.154-6.968 8.25-15.731 8.25-25.217 0-21.916-16.524-39.973-37.793-42.391l-0.196-0.018-4.651-0.256h-182.059c-12.279 0.005-23.344 5.196-31.125 13.502l-0.022 0.024-3.243 3.925-182.443 248.704-253.611-253.653c-7.716-7.691-18.362-12.446-30.119-12.446-23.564 0-42.667 19.103-42.667 42.667 0 9.874 3.354 18.964 8.985 26.194l-0.072-0.095 3.541 4.011 262.869 262.955-267.093 364.331c-5.154 6.968-8.25 15.731-8.25 25.217 0 21.916 16.524 39.973 37.793 42.391l0.196 0.018 4.651 0.256h182.059z" />
<glyph unicode="&#xe948;" glyph-name="youtube-gen-2" d="M768 832c117.821 0 213.333-95.513 213.333-213.333v0-341.333c0-117.821-95.513-213.333-213.333-213.333v0h-512c-117.821 0-213.333 95.513-213.333 213.333v0 341.333c0 117.821 95.513 213.333 213.333 213.333v0zM384 576v-256c0.019-23.55 19.114-42.633 42.667-42.633 8.098 0 15.67 2.256 22.12 6.174l-0.189-0.107 213.333 128c12.476 7.596 20.68 21.123 20.68 36.565s-8.204 28.969-20.492 36.459l-0.188 0.107-213.333 128c-6.261 3.811-13.832 6.068-21.931 6.068-23.552 0-42.647-19.083-42.667-42.631v-0.002z" />
<glyph unicode="&#xe949;" glyph-name="tiktok-gen-2" d="M686.208 874.667h-174.208c-23.564 0-42.667-19.103-42.667-42.667v0-490.667c0-0.009 0-0.021 0-0.032 0-35.346-28.654-64-64-64s-64 28.654-64 64c0 18.54 7.884 35.24 20.482 46.928l0.041 0.037 5.12 4.267c10.385 7.868 17.024 20.209 17.024 34.101 0 0.011 0 0.023 0 0.034v-0.002 184.576c0 0.010 0 0.022 0 0.035 0 23.564-19.103 42.667-42.667 42.667-3.481 0-6.866-0.417-10.105-1.204l0.292 0.060c-142.436-34.414-246.595-160.777-246.595-311.467 0-176.731 143.269-320 320-320 0.144 0 0.287 0 0.431 0h-0.023l10.368 0.213c172.198 5.757 309.607 146.721 309.632 319.784v115.202l13.269-6.528c47.872-22.613 99.541-37.035 153.173-42.368 1.267-0.133 2.736-0.21 4.224-0.21 23.564 0 42.667 19.103 42.667 42.667 0 0.014 0 0.027 0 0.041v-0.002 172.075c-0.003 21.060-15.263 38.555-35.33 42.033l-0.254 0.036c-89.545 15.604-159.179 85.224-174.62 173.484l-0.185 1.279c-3.496 20.339-20.997 35.62-42.069 35.627h-0.001z" />
<glyph unicode="&#xe94a;" glyph-name="slack" d="M215.125 312.96c-0.121-59.359-48.171-107.454-107.501-107.648h-0.019c-59.385 0.145-107.484 48.259-107.605 107.637v0.011c0.17 59.343 48.255 107.399 107.594 107.52h107.532zM269.355 312.96c0.169 59.328 48.231 107.375 107.549 107.52h0.014c59.332-0.145 107.393-48.192 107.563-107.504v-269.371c-0.145-59.355-48.211-107.436-107.546-107.605h-0.016c-59.352 0.169-107.417 48.25-107.563 107.591v0.014zM376.917 744.875c-59.322 0.169-107.369 48.201-107.563 107.501v0.019c0.145 59.355 48.211 107.436 107.546 107.605h0.016c59.352-0.169 107.417-48.25 107.563-107.591v-107.534zM376.917 690.645c59.337-0.169 107.393-48.226 107.563-107.546v-0.016c-0.169-59.337-48.226-107.393-107.546-107.563h-269.328c-59.355 0.145-107.436 48.211-107.605 107.546v0.016c0.169 59.352 48.25 107.417 107.591 107.563h0.014zM808.789 583.083c0.169 59.352 48.25 107.417 107.591 107.563h0.014c59.355-0.145 107.436-48.211 107.605-107.546v-0.016c-0.169-59.352-48.25-107.417-107.591-107.563h-107.619zM754.688 583.083c-0.17-59.367-48.274-107.442-107.636-107.563h-0.012c-59.328 0.169-107.375 48.231-107.52 107.549v269.326c0.121 59.35 48.177 107.436 107.504 107.605h0.016c59.389-0.121 107.503-48.22 107.648-107.592v-0.014zM647.040 151.211c59.389-0.121 107.503-48.22 107.648-107.592v-0.014c-0.145-59.385-48.259-107.484-107.637-107.605h-0.011c-59.343 0.17-107.399 48.255-107.52 107.594v107.617zM647.040 205.312c-59.358 0.17-107.423 48.28-107.52 107.639v0.009c0.145 59.323 48.197 107.375 107.506 107.52h269.369c59.35-0.121 107.436-48.177 107.605-107.504v-0.016c-0.121-59.389-48.22-107.503-107.592-107.648h-0.014z" />
<glyph unicode="&#xe94b;" glyph-name="facebook-gen-2" d="M768 874.667c21.803-0.003 39.784-16.359 42.348-37.47l0.020-0.205 0.299-4.992v-170.667c-0.003-21.803-16.359-39.784-37.47-42.348l-0.205-0.020-4.992-0.299h-128v-42.667h128c23.557-0.009 42.65-19.108 42.65-42.667 0-1.971-0.134-3.91-0.392-5.81l0.025 0.221-0.853-4.779-42.667-170.667c-4.41-17.128-18.769-29.935-36.409-31.981l-0.199-0.019-4.821-0.299h-85.333v-256c-0.003-21.803-16.359-39.784-37.47-42.348l-0.205-0.020-4.992-0.299h-170.667c-21.803 0.003-39.784 16.359-42.348 37.47l-0.020 0.205-0.299 4.992v256h-85.333c-21.803 0.003-39.784 16.359-42.348 37.47l-0.020 0.205-0.299 4.992v170.667c0.003 21.803 16.359 39.784 37.47 42.348l0.205 0.020 4.992 0.299h85.333v42.667c0 0.003 0 0.006 0 0.009 0 138.009 109.207 250.511 245.919 255.805l0.481 0.015 9.6 0.171h128z" />
<glyph unicode="&#xe94c;" glyph-name="facebook" d="M1023.919 448.038c0 282.748-229.21 511.962-511.957 511.962s-511.962-229.214-511.962-511.962c0-255.535 187.217-467.332 431.966-505.741v357.751h-129.988v147.989h129.988v112.794c0 128.311 76.433 199.185 193.374 199.185 56.013 0 114.603-10.001 114.603-10.001v-125.99h-64.555c-63.599 0-83.435-39.462-83.435-79.949v-96.038h141.99l-22.699-147.989h-119.292v-357.751c244.753 38.409 431.966 250.206 431.966 505.741z" />
<glyph unicode="&#xe94d;" glyph-name="github" d="M512 947.328c-282.88 0-512-229.248-512-512 0-226.261 146.688-418.133 350.080-485.76 25.6-4.821 34.987 11.008 34.987 24.619 0 12.16-0.427 44.373-0.64 87.040-142.421-30.891-172.459 68.693-172.459 68.693-23.296 59.093-56.96 74.88-56.96 74.88-46.379 31.744 3.584 31.104 3.584 31.104 51.413-3.584 78.421-52.736 78.421-52.736 45.653-78.293 119.851-55.68 149.12-42.581 4.608 33.109 17.792 55.68 32.427 68.48-113.707 12.8-233.216 56.832-233.216 253.013 0 55.893 19.84 101.547 52.693 137.387-5.76 12.928-23.040 64.981 4.48 135.509 0 0 42.88 13.739 140.8-52.48 40.96 11.392 84.48 17.024 128 17.28 43.52-0.256 87.040-5.888 128-17.28 97.28 66.219 140.16 52.48 140.16 52.48 27.52-70.528 10.24-122.581 5.12-135.509 32.64-35.84 52.48-81.493 52.48-137.387 0-196.693-119.68-240-233.6-252.587 17.92-15.36 34.56-46.763 34.56-94.72 0-68.523-0.64-123.563-0.64-140.203 0-13.44 8.96-29.44 35.2-24.32 204.843 67.157 351.403 259.157 351.403 485.077 0 282.752-229.248 512-512 512z" />
<glyph unicode="&#xe94e;" glyph-name="google" d="M522.24 521.173v-175.573h290.389c-11.733-75.307-87.723-220.757-290.389-220.757-174.72 0-317.397 144.597-317.397 323.157s142.72 323.157 317.397 323.157c99.413 0 166.016-42.197 204.16-78.891l138.837 133.888c-89.173 83.243-204.8 133.845-342.997 133.845-283.093 0-512-228.907-512-512s228.907-512 512-512c295.509 0 491.52 207.744 491.52 500.309 0 33.621-3.627 59.307-8.064 84.864z" />
<glyph unicode="&#xe94f;" glyph-name="grassway-text" horiz-adv-x="2560" d="M295.183 132.46c-37.733 0-68.533 8.533-92.267 25.6-23.867 17.333-42.933 40.133-57.067 68.267-14.267 28.4-24 60.533-29.333 96.533-5.067 36.267-7.467 73.2-7.467 110.933 0 102.667 15.067 178.4 45.333 227.2 30.133 49.067 76.933 73.6 140.267 73.6 5.6 0 11.733-0.4 18.133-1.067 6.667-0.8 14.133-2.4 22.4-4.8v-81.067c-6.133 15.6-12.8 26.933-20.267 34.133-7.467 7.467-15.2 11.2-22.933 11.2-10 0-19.6-5.2-28.8-15.467-8.933-10-16.533-24.4-22.933-43.2-7.467-24.933-13.2-54.933-17.067-90.133-4-35.2-5.867-72-5.867-110.4 0-37.733 1.867-74.4 5.867-109.867 3.867-35.6 9.6-65.867 17.067-90.667 5.6-16 12.933-30.267 21.867-42.667 8.8-12.133 19.733-18.133 32.533-18.133 5.6 0 10.667 1.067 14.933 3.2v198.4l80.533 19.733v-228.267c-12.533-11.467-27.2-19.733-44.267-25.067s-34-8-50.667-8zM476.862 554.326l-20.267 60.267h100.8c23.467 0 43.867-2.533 61.333-7.467 17.333-4.667 32-12.533 43.733-23.467 12-10.667 20.933-25.067 26.667-43.2 6-17.867 9.067-40 9.067-66.667 0-32.8-4.533-58.933-13.333-78.4-8.933-19.2-22.267-33.867-40-43.733l53.333-219.2h-80.533l-48.533 201.6c-2.933-0.8-6.8-1.067-11.733-1.067v-200.533h-80.533zM557.395 372.46c13.467 0 24.533 2.8 33.067 8.533 8.533 5.6 15.2 13.333 20.267 22.933 4.933 9.867 8.267 20.8 10.133 32.533 2.133 12 3.2 24.533 3.2 37.333s-1.067 25.067-3.2 36.8c-1.867 12-5.2 22.933-10.133 32.533-5.067 9.867-11.733 17.733-20.267 23.467-8.533 5.6-19.6 8.8-33.067 9.6zM817.849 554.326l-9.6 60.267h80.533l80-482.133h-80l-16.533 100.8h-67.733l-16.533-100.8h-40zM865.316 273.26l-26.667 160.533-27.2-160.533zM1102.076 132.46c-13.6 0-25.867 2.667-36.8 8-10.667 5.6-19.733 11.867-27.2 18.667-7.467 7.067-13.6 14-18.133 20.8-4.267 7.067-7.333 12-9.067 14.933l32.533 26.667c3.867-5.733 8.133-10.533 12.8-14.4 3.867-3.2 8-6.267 12.267-9.067 4.533-2.533 9.6-3.733 14.933-3.733 10.933 0 19.733 4.933 26.133 14.933 6.4 10.267 9.6 22.667 9.6 37.333 0 3.2 0 6.133 0 9.067 0 3.2-0.533 6.533-1.6 10.133-4.267 18.133-12.267 35.867-24 53.333-11.733 17.733-23.867 35.867-36.267 54.4-12.533 18.4-23.467 38-33.067 58.667-9.333 20.533-13.867 42.933-13.867 67.2-0.8 17.333 1.333 33.067 6.4 46.933 4.933 14.133 11.867 26.267 20.8 36.267 8.8 10.267 19.333 18.133 31.467 23.467 12.4 5.6 25.6 8.533 39.467 8.533 13.067 0 25.067-2.933 35.733-8.533 10.933-5.333 20.267-11.6 27.733-18.667 7.733-6.8 13.867-13.733 18.133-20.8 4.267-6.8 7.2-11.6 9.067-14.4l-32.533-26.667c0 0-1.067 1.2-3.2 3.733-2.133 2.8-5.2 6-9.067 9.6-4 3.867-8.4 7.067-13.333 9.6-4.667 2.8-9.6 4.267-14.933 4.267-11.067 0-19.733-4.8-26.133-14.4s-9.6-21.733-9.6-36.267c0-7.2 0.667-14.133 2.133-20.8 4.533-18.133 12.533-36.133 24-53.867 11.733-17.467 23.733-35.467 36.267-53.867 12.8-18.533 23.733-38.133 33.067-58.667 9.6-20.667 14.4-43.2 14.4-67.733 0.267-17.067-2-32.8-6.933-46.933-5.067-14.267-12.133-26.4-21.333-36.267-8.933-10-19.6-17.867-32-23.467-12.133-5.333-24.8-8-37.867-8zM1341.755 132.46c-13.6 0-25.867 2.667-36.8 8-10.667 5.6-19.733 11.867-27.2 18.667-7.467 7.067-13.6 14-18.133 20.8-4.267 7.067-7.333 12-9.067 14.933l32.533 26.667c3.867-5.733 8.133-10.533 12.8-14.4 3.867-3.2 8-6.267 12.267-9.067 4.533-2.533 9.6-3.733 14.933-3.733 10.933 0 19.733 4.933 26.133 14.933 6.4 10.267 9.6 22.667 9.6 37.333 0 3.2 0 6.133 0 9.067 0 3.2-0.533 6.533-1.6 10.133-4.267 18.133-12.267 35.867-24 53.333-11.733 17.733-23.867 35.867-36.267 54.4-12.533 18.4-23.467 38-33.067 58.667-9.333 20.533-13.867 42.933-13.867 67.2-0.8 17.333 1.333 33.067 6.4 46.933 4.933 14.133 11.867 26.267 20.8 36.267 8.8 10.267 19.333 18.133 31.467 23.467 12.4 5.6 25.6 8.533 39.467 8.533 13.067 0 25.067-2.933 35.733-8.533 10.933-5.333 20.267-11.6 27.733-18.667 7.733-6.8 13.867-13.733 18.133-20.8 4.267-6.8 7.2-11.6 9.067-14.4l-32.533-26.667c0 0-1.067 1.2-3.2 3.733-2.133 2.8-5.2 6-9.067 9.6-4 3.867-8.4 7.067-13.333 9.6-4.667 2.8-9.6 4.267-14.933 4.267-11.067 0-19.733-4.8-26.133-14.4s-9.6-21.733-9.6-36.267c0-7.2 0.667-14.133 2.133-20.8 4.533-18.133 12.533-36.133 24-53.867 11.733-17.467 23.733-35.467 36.267-53.867 12.8-18.533 23.733-38.133 33.067-58.667 9.6-20.667 14.4-43.2 14.4-67.733 0.267-17.067-2-32.8-6.933-46.933-5.067-14.267-12.133-26.4-21.333-36.267-8.933-10-19.6-17.867-32-23.467-12.133-5.333-24.8-8-37.867-8zM1481.167 614.593h81.067l59.733-361.6 50.133 301.333-10.133 60.267h80.533l60.267-361.6 59.733 361.6h41.067l-81.067-482.133h-80l-50.667 301.333-50.133-301.333h-79.467zM2006.257 554.326l-9.6 60.267h80.533l80-482.133h-80l-16.533 100.8h-67.733l-16.533-100.8h-40zM2053.724 273.26l-26.667 160.533-27.2-160.533zM2280.884 343.126l-90.667 271.467h81.067c1.333-5.733 3.867-14.133 7.467-25.067 3.867-10.667 8-22.933 12.267-36.8 4.533-13.867 9.333-28.533 14.4-43.733 5.333-15.333 10.133-29.867 14.4-43.733 4.533-13.867 8.8-26.4 12.8-37.333 3.867-11.067 6.667-19.067 8.533-24l69.867 210.667h40.533l-90.667-271.467v-210.667h-80z" />
<glyph unicode="&#xe950;" glyph-name="discard" d="M512 106.667q142.933 0 242.133 99.2t99.2 242.133-99.2 242.133-242.133 99.2q-73.6 0-140.8-30.4t-115.2-86.933v117.333h-85.333v-298.667h298.667v85.333h-179.2q34.133 59.733 93.333 93.867t128.533 34.133q106.667 0 181.333-74.667t74.667-181.333-74.667-181.333-181.333-74.667q-82.133 0-148.267 46.933t-92.8 123.733h-89.6q29.867-113.067 121.6-184.533t209.067-71.467z" />
<glyph unicode="&#xe951;" glyph-name="youtube-fill" d="M1013.8 652.8c0 0-10 70.6-40.8 101.6-39 40.8-82.6 41-102.6 43.4-143.2 10.4-358.2 10.4-358.2 10.4h-0.4c0 0-215 0-358.2-10.4-20-2.4-63.6-2.6-102.6-43.4-30.8-31-40.6-101.6-40.6-101.6s-10.2-82.8-10.2-165.8v-77.6c0-82.8 10.2-165.8 10.2-165.8s10-70.6 40.6-101.6c39-40.8 90.2-39.4 113-43.8 82-7.8 348.2-10.2 348.2-10.2s215.2 0.4 358.4 10.6c20 2.4 63.6 2.6 102.6 43.4 30.8 31 40.8 101.6 40.8 101.6s10.2 82.8 10.2 165.8v77.6c-0.2 82.8-10.4 165.8-10.4 165.8zM406.2 315.2v287.8l276.6-144.4-276.6-143.4z" />
<glyph unicode="&#xe952;" glyph-name="search" d="M836.267 64l-268.8 268.8q-32-25.6-73.6-40.533t-88.533-14.933q-116.267 0-196.8 80.533t-80.533 196.8 80.533 196.8 196.8 80.533 196.8-80.533 80.533-196.8q0-46.933-14.933-88.533t-40.533-73.6l268.8-268.8-59.733-59.733zM405.333 362.667q80 0 136 56t56 136-56 136-136 56-136-56-56-136 56-136 136-56z" />
</font>
</defs>
</svg>
